<svg xmlns="http://www.w3.org/2000/svg" width="60" height="60" viewBox="0 0 60 60"><defs><style>.a{fill:#8a9cfe;}.b{fill:#fdfdfd;}</style></defs><circle class="a" cx="30" cy="30" r="30"/><path class="b" d="M45.8,18.7a17.82,17.82,0,0,0-10.1-3.8l-.5.6c6.1,1.9,9,4.6,9,4.6a30.377,30.377,0,0,0-26.9-1c-1.3.6-2.1,1-2.1,1s3-2.8,9.5-4.7l-.4-.4a17.82,17.82,0,0,0-10.1,3.8A48.138,48.138,0,0,0,9,39.8s3,5.2,11,5.5c0,0,1.3-1.6,2.4-3-4.6-1.4-6.3-4.2-6.3-4.2a7.052,7.052,0,0,0,1.5.9,26.529,26.529,0,0,0,22.5,1.3,22.8,22.8,0,0,0,4.1-2.1,11.165,11.165,0,0,1-6.5,4.3c1.1,1.4,2.4,2.9,2.4,2.9,8-.3,11-5.5,11-5.5A49.352,49.352,0,0,0,45.8,18.7ZM23.3,36.3a3.894,3.894,0,0,1-3.7-4,3.828,3.828,0,0,1,3.7-4,3.828,3.828,0,0,1,3.7,4A3.963,3.963,0,0,1,23.3,36.3Zm13.1,0a3.894,3.894,0,0,1-3.7-4,3.711,3.711,0,1,1,7.4,0A3.828,3.828,0,0,1,36.4,36.3Z"/></svg>