<svg xmlns="http://www.w3.org/2000/svg" xmlns:xlink="http://www.w3.org/1999/xlink" width="75" height="84.574" viewBox="0 0 75 84.574"><defs><style>.a{fill:none;}.b{clip-path:url(#a);}.c{fill:#8a9cfe;}.d{fill:#fdfdfd;}.e,.f{stroke:none;}.f{fill:#fff;}.g{filter:url(#b);}</style><clipPath id="a"><rect class="a" width="75" height="84.574"/></clipPath><filter id="b" x="0" y="0" width="75" height="84.574" filterUnits="userSpaceOnUse"><feOffset input="SourceAlpha"/><feGaussianBlur stdDeviation="3.5" result="c"/><feFlood flood-opacity="0.451"/><feComposite operator="in" in2="c"/><feComposite in="SourceGraphic"/></filter></defs><g class="b"><g class="g" transform="matrix(1, 0, 0, 1, 0, 0)"><g class="c" transform="translate(12.5 12.5)"><path class="e" d="M 51 59.35571670532227 L 49.33774948120117 57.88653945922852 C 48.18814849853516 56.87046813964844 47.28071975708008 56.07024765014648 46.53345108032227 55.41127014160156 C 43.03588104248047 52.32693862915039 43.03588104248047 52.32693862915039 38.18175888061523 47.81250762939453 C 38.12688064575195 47.76147079467773 38.07136154174805 47.70983505249023 38.01522827148438 47.65763092041016 L 38.28876113891602 50.28874969482422 L 38.40346908569336 51.39214706420898 L 37.29412078857422 51.39214706420898 L 5.856210231781006 51.39214706420898 C 2.075680017471313 51.39214706420898 -1 48.30473709106445 -1 44.50979995727539 L -1 5.882358074188232 C -1 2.087408304214478 2.075680017471313 -1.000001668930054 5.856210231781006 -1.000001668930054 L 44.14379119873047 -1.000001668930054 C 47.92432022094727 -1.000001668930054 51 2.087408304214478 51 5.882358074188232 L 51 57.13725662231445 L 51 59.35571670532227 Z"/><path class="f" d="M 5.856208801269531 0 C 2.627449035644531 0 0 2.627449035644531 0 5.882347106933594 L 0 44.50979614257812 C 0 47.76469802856445 2.627449035644531 50.39214706420898 5.856208801269531 50.39214706420898 L 37.29412078857422 50.39214706420898 L 36.74510192871094 45.11110687255859 C 45.09804153442383 52.87580871582031 42.79737854003906 50.771240234375 50 57.13725662231445 L 50 5.882347106933594 C 50 2.627449035644531 47.37255096435547 0 44.14379119873047 0 L 5.856208801269531 0 M 5.856208801269531 -2 L 44.14379119873047 -2 C 48.4757194519043 -2 52 1.536006927490234 52 5.882347106933594 L 52 57.13725662231445 L 52 61.57417678833008 L 48.67549896240234 58.63581848144531 C 47.52635192871094 57.62014770507812 46.6192512512207 56.82022857666016 45.87224960327148 56.16147994995117 C 42.85725402832031 53.50270843505859 42.43349456787109 53.12900161743164 39.28534317016602 50.20401763916016 L 39.51282119750977 52.39214706420898 L 37.29412078857422 52.39214706420898 L 5.856208801269531 52.39214706420898 C 1.524280548095703 52.39214706420898 -2 48.85614013671875 -2 44.50979614257812 L -2 5.882347106933594 C -2 1.536006927490234 1.524280548095703 -2 5.856208801269531 -2 Z"/></g></g><path class="d" d="M94.068,104.892a14.1,14.1,0,0,0-8.026-2.993l-.405.458a18.948,18.948,0,0,1,7.111,3.634,24.231,24.231,0,0,0-21.346-.824c-1.059.484-1.686.824-1.686.824a19.113,19.113,0,0,1,7.516-3.739l-.288-.34a14.1,14.1,0,0,0-8.026,2.993A38.2,38.2,0,0,0,64.8,121.558s2.405,4.144,8.719,4.34c0,0,1.059-1.281,1.908-2.366a8.819,8.819,0,0,1-4.993-3.373c.418.288,1.111.68,1.176.719a20.8,20.8,0,0,0,17.83.993,16.022,16.022,0,0,0,3.281-1.686,9.01,9.01,0,0,1-5.176,3.4c.863,1.085,1.882,2.314,1.882,2.314,6.314-.2,8.745-4.34,8.745-4.34A38.175,38.175,0,0,0,94.068,104.892Zm-17.908,14a3.188,3.188,0,0,1,0-6.353,3.188,3.188,0,0,1,0,6.353Zm10.431,0a3.188,3.188,0,1,1,2.915-3.176A3.066,3.066,0,0,1,86.591,118.892Z" transform="translate(-43.829 -76.078)"/></g></svg>