<svg xmlns="http://www.w3.org/2000/svg" xmlns:xlink="http://www.w3.org/1999/xlink" width="60" height="60" viewBox="0 0 60 60"><defs><style>.a{fill:url(#a);}.b{fill:#fff;}</style><linearGradient id="a" x1="0.5" x2="0.5" y2="1" gradientUnits="objectBoundingBox"><stop offset="0" stop-color="#51abf7"/><stop offset="1" stop-color="#2860d7"/></linearGradient></defs><path class="a" d="M60,30A30,30,0,1,0,25.313,59.637V38.672H17.7V30h7.617V23.391c0-7.518,4.477-11.672,11.332-11.672a46.139,46.139,0,0,1,6.715.586v7.383H39.574c-3.727,0-4.887,2.314-4.887,4.688V30h8.32l-1.33,8.672h-6.99V59.637A30,30,0,0,0,60,30Z"/><path class="b" d="M325.982,226.953l1.33-8.672h-8.32v-5.625c0-2.373,1.16-4.687,4.887-4.687h3.785v-7.383a46.139,46.139,0,0,0-6.715-.586c-6.855,0-11.332,4.154-11.332,11.672v6.609H302v8.672h7.617v20.965a30.424,30.424,0,0,0,9.375,0V226.953Z" transform="translate(-284.305 -188.281)"/></svg>