<svg xmlns="http://www.w3.org/2000/svg" xmlns:xlink="http://www.w3.org/1999/xlink" width="60" height="60" viewBox="0 0 60 60"><defs><style>.a{fill:url(#a);}.b{fill:#fff;}</style><linearGradient id="a" x1="0.146" y1="0.854" x2="0.853" y2="0.146" gradientUnits="objectBoundingBox"><stop offset="0" stop-color="#f3ca5f"/><stop offset="0.215" stop-color="#f88827"/><stop offset="0.43" stop-color="#dc2d5c"/><stop offset="0.71" stop-color="#a44882"/><stop offset="1" stop-color="#46469b"/></linearGradient></defs><path class="a" d="M60,30A30,30,0,1,1,29.979,0,29.995,29.995,0,0,1,60,30Z"/><path class="b" d="M57.135,65.182H38.08A7.9,7.9,0,0,1,30.2,57.3V38.186A7.9,7.9,0,0,1,38.08,30.3H57.135a7.9,7.9,0,0,1,7.88,7.886V57.254A7.913,7.913,0,0,1,57.135,65.182ZM38.08,33.763a4.451,4.451,0,0,0-4.42,4.423V57.254a4.423,4.423,0,0,0,4.42,4.423H57.135a4.451,4.451,0,0,0,4.42-4.423V38.186a4.451,4.451,0,0,0-4.42-4.423Zm9.507,23.074a9.013,9.013,0,1,1,9.006-9.013A9.025,9.025,0,0,1,47.587,56.837Zm0-14.562a5.549,5.549,0,1,0,5.546,5.549A5.572,5.572,0,0,0,47.587,42.275ZM56.969,36.6A2.314,2.314,0,0,0,54.675,38.9a2.287,2.287,0,0,0,2.293,2.295A2.314,2.314,0,0,0,59.262,38.9,2.342,2.342,0,0,0,56.969,36.6Z" transform="translate(-17.608 -17.657)"/></svg>