<svg xmlns="http://www.w3.org/2000/svg" width="60" height="60" viewBox="0 0 60 60"><defs><style>.a{fill:#3b4148;}.b{fill:#fff;}</style></defs><path class="a" d="M30,0A30,30,0,1,0,60,30,30,30,0,0,0,30,0Z"/><g transform="translate(12.953 15.328)"><path class="b" d="M33.338,13.614l-10.8-5.4a.38.38,0,0,0-.156-.038l-.011,0a.39.39,0,0,0-.332.18L15.383,19.172l7.431,12.075L33.443,13.974A.255.255,0,0,0,33.338,13.614Z" transform="translate(0.508 -8.175)"/><path class="b" d="M13.5,12.013V23.67l10.361,5.179Z" transform="translate(-1.136 -4.817)"/><path class="b" d="M19.514,29.161l9.514,4.757a.6.6,0,0,0,.945-.583V12.166Z" transform="translate(4.122 -4.683)"/><path class="b" d="M18.134,13.608,8.168,8.626l-.63-.315a.576.576,0,0,0-.255-.067.343.343,0,0,0-.272.124.519.519,0,0,0-.1.332V31.443a1.249,1.249,0,0,0,.63,1.018l9.791,4.9a.873.873,0,0,0,.383.1c.33,0,.561-.255.561-.684V13.835A.249.249,0,0,0,18.134,13.608Z" transform="translate(-6.908 -8.115)"/></g></svg>