<svg xmlns="http://www.w3.org/2000/svg" xmlns:xlink="http://www.w3.org/1999/xlink" width="60" height="60" viewBox="0 0 60 60"><defs><style>.a{fill:url(#a);}.b{fill:#c8daea;}.c{fill:#a9c9dd;}.d{fill:url(#b);}</style><linearGradient id="a" x1="0.667" y1="0.167" x2="0.417" y2="0.75" gradientUnits="objectBoundingBox"><stop offset="0" stop-color="#37aee2"/><stop offset="1" stop-color="#1e96c8"/></linearGradient><linearGradient id="b" x1="0.66" y1="0.437" x2="0.851" y2="0.802" gradientUnits="objectBoundingBox"><stop offset="0" stop-color="#eff7fc"/><stop offset="1" stop-color="#fff"/></linearGradient></defs><circle class="a" cx="30" cy="30" r="30"/><path class="b" d="M86,103.75c-.972,0-.807-.367-1.142-1.292L82,93.051,104,80" transform="translate(-61.5 -60)"/><path class="c" d="M98,152.055a1.922,1.922,0,0,0,1.5-.75l4-3.889-4.99-3.009" transform="translate(-73.5 -108.305)"/><path class="d" d="M61.7,90.238l12.09,8.932c1.38.761,2.375.367,2.719-1.281L81.429,74.7c.5-2.02-.77-2.936-2.09-2.337L50.442,83.5c-1.973.791-1.961,1.892-.36,2.382L57.5,88.2,74.666,77.369c.81-.491,1.554-.227.944.315" transform="translate(-36.689 -54.135)"/></svg>