<svg xmlns="http://www.w3.org/2000/svg" width="60" height="60" viewBox="0 0 60 60"><defs><style>.a{fill:#1da1f2;}.b{fill:#fff;}</style></defs><circle class="a" cx="30" cy="30" r="30"/><path class="b" d="M93.755,133.15c13.305,0,20.58-11.025,20.58-20.58,0-.315,0-.63-.015-.93a14.818,14.818,0,0,0,3.615-3.75,14.681,14.681,0,0,1-4.155,1.14,7.229,7.229,0,0,0,3.18-4,14.647,14.647,0,0,1-4.59,1.755,7.237,7.237,0,0,0-12.51,4.95,6.628,6.628,0,0,0,.2,1.65,20.519,20.519,0,0,1-14.91-7.56,7.23,7.23,0,0,0,2.25,9.645,7.105,7.105,0,0,1-3.27-.9v.09a7.241,7.241,0,0,0,5.805,7.1,7.21,7.21,0,0,1-1.905.255,6.906,6.906,0,0,1-1.365-.135,7.222,7.222,0,0,0,6.75,5.025,14.54,14.54,0,0,1-8.985,3.09,13.153,13.153,0,0,1-1.725-.1,20.152,20.152,0,0,0,11.055,3.27" transform="translate(-70.295 -88.825)"/></svg>